<svg width="20" height="20" fill="currentColor" xmlns="http://www.w3.org/2000/svg"><g><path d="M5.4 9.6h3.8V8.3H6.7v-.8h1.6c.3 0 .5 0 .6-.2l.3-.6V5.4l-.3-.6a.8.8 0 0 0-.6-.2H5.4v1.2H8v.9H6.2c-.2 0-.4 0-.5.2l-.3.6v2Zm5.4 0h3c.2 0 .4-.1.5-.3.2-.1.3-.3.3-.6V5.5l-.3-.6a.8.8 0 0 0-.6-.2h-2.9v1.2h2.5v.9h-1.6v.8h1.6v.8h-2.5v1.3ZM5 15.4h1.3v-3.7H7v2.5h1.2v-2.5h.9v3.7h1.2v-4.2c0-.2 0-.4-.2-.5a.8.8 0 0 0-.6-.3H5.8l-.6.3-.2.6v4.1Zm6.3 0h1.2v-1.2h1.7l.6-.3.2-.6v-2c0-.3 0-.5-.2-.6a.8.8 0 0 0-.6-.3h-3v5Zm1.2-2.5v-1.2h1.3v1.2h-1.3Zm-8.3 4.6c-.5 0-.9-.2-1.2-.5-.3-.3-.5-.7-.5-1.2V4.2c0-.5.2-.9.5-1.2.3-.3.7-.5 1.2-.5h11.6c.5 0 .9.2 1.2.5.3.3.5.7.5 1.2v11.6c0 .5-.2.9-.5 1.2-.3.3-.7.5-1.2.5H4.2Zm0-1.7h11.6V4.2H4.2v11.6Z" fill="currentColor"/></g></svg>