<svg width="25" height="24" fill="currentColor" xmlns="http://www.w3.org/2000/svg"><g><path d="M23.5 14h-4.6a6.1 6.1 0 0 0-.6-2h3.1a1.4 1.4 0 0 0-.5-.5 5 5 0 0 0-1.5-.6l-1.9-.2A6.5 6.5 0 0 0 15 9a13 13 0 0 1 2.4-.3 10.6 10.6 0 0 1 4.6 1.1c.5.3.8.6 1 1 .3.5.4 1 .4 1.6V14Zm-6-6c-.8 0-1.5-.3-2.1-.9-.6-.6-.9-1.3-.9-2.1s.3-1.5.9-2.1c.6-.6 1.3-.9 2.1-.9s1.5.3 2.1.9c.6.6.9 1.3.9 2.1s-.3 1.5-.9 2.1c-.6.6-1.3.9-2.1.9Zm0-2c.3 0 .5-.1.7-.3.2-.2.3-.4.3-.7a1 1 0 0 0-.3-.7 1 1 0 0 0-.7-.3 1 1 0 0 0-.7.3 1 1 0 0 0-.3.7c0 .3.1.5.3.7.2.2.4.3.7.3Zm-16 8v-1.6c0-.6.1-1 .4-1.5.2-.5.5-.8 1-1a9.2 9.2 0 0 1 4.6-1.2 10.4 10.4 0 0 1 2.4.3 6.7 6.7 0 0 0-2.3 1.8h-.1l-2 .1a5 5 0 0 0-1.4.6 1.4 1.4 0 0 0-.5.5h3.1a6.2 6.2 0 0 0-.6 2H1.5Zm6-6c-.8 0-1.5-.3-2.1-.9-.6-.6-.9-1.3-.9-2.1s.3-1.5.9-2.1C6 2.3 6.7 2 7.5 2s1.5.3 2.1.9c.6.6.9 1.3.9 2.1s-.3 1.5-.9 2.1c-.6.6-1.3.9-2.1.9Zm0-2c.3 0 .5-.1.7-.3.2-.2.3-.4.3-.7a1 1 0 0 0-.3-.7 1 1 0 0 0-.7-.3 1 1 0 0 0-.7.3 1 1 0 0 0-.3.7c0 .3.1.5.3.7.2.2.4.3.7.3Zm5 11a2 2 0 0 1-1.4-.6 2 2 0 0 1-.6-1.4v-3c0-.6.2-1 .6-1.4a2 2 0 0 1 1.4-.6c.6 0 1 .2 1.4.6.4.4.6.8.6 1.4v3c0 .6-.2 1-.6 1.4a2 2 0 0 1-1.4.6Zm-.8 5v-2a4.9 4.9 0 0 1-3-1.7c-.8-1-1.2-2-1.2-3.3H9c0 1 .3 1.8 1 2.5s1.5 1 2.5 1 1.8-.3 2.5-1 1-1.5 1-2.5h1.5c0 1.3-.4 2.3-1.2 3.3-.8 1-1.9 1.5-3 1.6V22h-1.6Z" fill="currentColor"/></g></svg>