<svg width="24" height="24" fill="currentColor" xmlns="http://www.w3.org/2000/svg"><g><path d="M6.5 11 12 2l5.5 9h-11Zm11 11c-1.3 0-2.3-.4-3.2-1.3-.9-.9-1.3-2-1.3-3.2 0-1.3.4-2.3 1.3-3.2.9-.9 2-1.3 3.2-1.3 1.3 0 2.3.4 3.2 1.3.9.9 1.3 2 1.3 3.2 0 1.3-.4 2.3-1.3 3.2-.9.9-2 1.3-3.2 1.3ZM3 21.5v-8h8v8H3ZM17.5 20c.7 0 1.3-.2 1.8-.7.5-.5.7-1.1.7-1.8s-.2-1.3-.7-1.8c-.5-.5-1.1-.7-1.8-.7s-1.3.2-1.8.7c-.5.5-.7 1.1-.7 1.8s.2 1.3.7 1.8c.5.5 1.1.7 1.8.7ZM5 19.5h4v-4H5v4ZM10 9h4l-2-3.2L10 9Z" fill="currentColor"/></g></svg>