<svg width="25" height="24" fill="currentColor" xmlns="http://www.w3.org/2000/svg"><g><path d="m2.5 22 5-14 9 9-14 5Zm3.3-3.3 7-2.5-4.5-4.5-2.5 7Zm9.3-6.1L14 11.5l5.6-5.6c.5-.5 1.2-.8 2-.8.7 0 1.3.3 1.8.8l.7.6-1.1 1-.6-.5c-.2-.3-.5-.4-.9-.4-.3 0-.6.1-.9.4L15 12.6Zm-4-4L10 7.5l.6-.6c.2-.2.3-.5.3-.9 0-.3 0-.6-.3-.8l-.7-.7 1.1-1 .7.7c.5.5.8 1.1.8 1.8 0 .8-.3 1.4-.8 2l-.6.6Zm2 2L12 9.5l3.6-3.6c.2-.2.3-.5.3-.9 0-.3 0-.6-.3-.8L14 2.5l1-1 1.6 1.6c.6.5.8 1.2.8 2 0 .7-.2 1.3-.8 1.9L13 10.6Zm4 4L16 13.5l1.6-1.6c.5-.5 1.2-.8 2-.8.7 0 1.3.3 1.8.8l1.7 1.6-1.1 1-1.6-1.6c-.2-.2-.5-.3-.9-.3l-.9.3-1.6 1.7Z" fill="currentColor"/></g></svg>