<svg width="24" height="24" fill="currentColor" xmlns="http://www.w3.org/2000/svg"><g><path d="M10.3 12c-.5 0-.9-.2-1.2-.5-.3-.4-.4-.8-.3-1.3l.3-1.8A3 3 0 0 1 12 6c.7 0 1.4.2 2 .7.5.4.8 1 1 1.7l.2 1.8c.1.5 0 1-.3 1.3-.3.3-.7.5-1.2.5h-3.4Zm.6-2h2.3l-.3-1.2c0-.3 0-.4-.3-.6A1 1 0 0 0 12 8a1 1 0 0 0-.6.2c-.2.2-.3.3-.3.6l-.2 1.2ZM3 13c-.4 0-.7 0-1-.3-.3-.1-.4-.4-.5-.7a1.4 1.4 0 0 1 0-.9V11l-.2-.6v-.6l.4-.5c0-.3.2-.6.4-.8.3-.2.5-.3.9-.3h.5l.4-.1a1.4 1.4 0 0 1 .9 0l.3.3c.3 0 .5 0 .7.2l.4.5v.8l.3.3v.5l-.1.5v.5c0 .4-.1.7-.4.9-.3.3-.6.4-1 .4H3ZM20 13a2 2 0 0 1-1.4-.6 2 2 0 0 1-.5-2l.2-.5-.7-.6c-.1-.1-.2-.3 0-.5 0-.2.2-.3.4-.3h2c.6 0 1 .2 1.4.6.4.4.6.8.6 1.4v.5c0 .6-.2 1-.6 1.4a2 2 0 0 1-1.4.6ZM0 18v-1.6c0-.7.4-1.3 1.1-1.7.8-.5 1.7-.7 2.9-.7a15 15 0 0 1 1.2 0 3.8 3.8 0 0 0-.7 2.4V18H0Zm6 0v-1.6c0-1.1.6-2 1.7-2.6 1-.7 2.5-1 4.3-1 1.8 0 3.3.3 4.4 1 1 .6 1.6 1.5 1.6 2.6V18H6Zm14-4c1.2 0 2.2.2 2.9.7.7.4 1.1 1 1.1 1.7V18h-4.5v-1.6c0-.5 0-.9-.2-1.2A4 4 0 0 0 19 14h.5l.6-.1Zm-8 .8a8 8 0 0 0-2.6.3c-.7.3-1.1.6-1.3.9H16c-.2-.3-.6-.6-1.3-.9a8 8 0 0 0-2.6-.3Z" fill="currentColor"/></g></svg>