<svg width="21" height="16" fill="currentColor" xmlns="http://www.w3.org/2000/svg"><path d="m7.7 12 2.8-2.1 2.8 2.1-1.1-3.4L15 6.4h-3.4L10.5 3 9.4 6.4H6l2.8 2.2L7.7 12Zm-5.2 4a2 2 0 0 1-1.4-.6A2 2 0 0 1 .5 14v-3.4c0-.2 0-.3.2-.4 0-.2.2-.3.4-.3a2 2 0 0 0 1-.7c.3-.4.4-.8.4-1.2a2 2 0 0 0-.4-1.2 2 2 0 0 0-1-.7.8.8 0 0 1-.4-.3.7.7 0 0 1-.2-.4V2c0-.6.2-1 .6-1.4A2 2 0 0 1 2.5 0h16c.6 0 1 .2 1.4.6.4.4.6.8.6 1.4v3.4c0 .2 0 .3-.2.4 0 .2-.2.3-.4.3a2 2 0 0 0-1 .7 2 2 0 0 0-.4 1.2c0 .4.1.8.4 1.2.2.3.6.6 1 .7.2 0 .3.1.4.3l.2.4V14c0 .6-.2 1-.6 1.4a2 2 0 0 1-1.4.6h-16Zm0-2h16v-2.6c-.6-.3-1.1-.8-1.5-1.4-.3-.6-.5-1.3-.5-2s.2-1.4.5-2c.4-.6.9-1 1.5-1.5V2h-16v2.5C3.1 5 3.6 5.5 4 6c.3.6.5 1.3.5 2s-.2 1.4-.5 2c-.4.6-.9 1-1.5 1.4V14Z"/></svg>