<svg width="24" height="24" fill="currentColor" xmlns="http://www.w3.org/2000/svg"><path d="M12 12c.6 0 1-.2 1.4-.6.4-.4.6-.8.6-1.4 0-.6-.2-1-.6-1.4A2 2 0 0 0 12 8a2 2 0 0 0-1.4.6A2 2 0 0 0 10 10c0 .6.2 1 .6 1.4.4.4.8.6 1.4.6Zm0 7.4c2-2 3.5-3.6 4.5-5.1 1-1.6 1.5-3 1.5-4.1a6 6 0 0 0-1.7-4.5A5.8 5.8 0 0 0 12 4c-1.7 0-3.1.6-4.3 1.7A6 6 0 0 0 6 10.2c0 1.2.5 2.5 1.5 4 1 1.6 2.5 3.3 4.5 5.2Zm0 2.6a33.2 33.2 0 0 1-6-6.4c-1.3-2-2-3.7-2-5.4 0-2.5.8-4.5 2.4-6A8 8 0 0 1 12 2a8 8 0 0 1 5.6 2.2 7.7 7.7 0 0 1 2.4 6c0 1.7-.7 3.5-2 5.4-1.3 2-3.3 4.1-6 6.4Z"/></svg>