<svg width="25" height="24" fill="currentColor" xmlns="http://www.w3.org/2000/svg"><path d="M5.3 7c-.3-.3-.4-.6-.6-1l-.2-1c0-.8.3-1.5.9-2.1C6 2.3 6.7 2 7.5 2s1.5.3 2.1.9a2.9 2.9 0 0 1 .7 3.2l-.6.9H5.3Zm5.2 15c-1.1 0-2-.4-2.8-1.2A3.9 3.9 0 0 1 6.5 18h-1l-1-10h6l-1 10h-1c0 .6.2 1 .6 1.4.4.4.8.6 1.4.6.6 0 1-.2 1.4-.6.4-.4.6-.8.6-1.4V6c0-1.1.4-2 1.2-2.8.8-.8 1.7-1.2 2.8-1.2 1.1 0 2 .4 2.8 1.2.8.8 1.2 1.7 1.2 2.8v16h-2V6c0-.5-.2-1-.6-1.4a2 2 0 0 0-1.4-.6 2 2 0 0 0-1.4.6 2 2 0 0 0-.6 1.4v12c0 1.1-.4 2-1.2 2.8-.8.8-1.7 1.2-2.8 1.2Zm-3.2-6h.4l.6-6H6.7l.6 6Z"/></svg>