<svg width="800" height="392" fill="none" xmlns="http://www.w3.org/2000/svg"><g><path d="M763.4 255.3s-7.5-3.5-13.4 14c-5.9 17.7-7.6 27.6-7.6 27.6s-1.7 3.8-4.4 1.9c-2.7-2-6.9-7.8-10.7-6-4 1.8-4.7 6.6-2.8 13.3 1.8 6.7 5.2 21.5 5.5 22.8.3 1.3-.2 3.4-2.2 2.4s-14.5-11.2-19-5c-4.5 6.1 3.6 24 4.5 25.9.8 2 .6 2.9-.3 3.5-1 .7-4.8-3.2-8.4-6-3.7-2.7-8.4-5.3-10.7-1.5-2.3 3.8-1.1 17.9 15.5 38.6l8.4 9 12.1-2.5c25.7-7 34.9-17.6 35.3-22 .3-4.5-5-5.1-9.6-5-4.6 0-10 1-10.3-.1-.3-1 0-2 1.8-3.1 1.9-1 18.9-10.7 18.9-18.4 0-7.6-16.1-6.6-18.4-7-2.2-.4-1.3-2.4-.3-3.3a895 895 0 0 1 17.8-15.2c5.4-4.3 7.7-8.6 5.6-12.4-2.1-3.7-9-1.4-12.2-1.5-3.3 0-2.5-4-2.5-4s4.4-9 10-26.8c5.6-17.7-2.8-19.3-2.8-19.3" fill="#EBEBEB"/><path d="M716.2 398.3c4.1-13 11.9-36 18.4-55.7a8215 8215 0 0 0 21.7-66l1.3-4.1.4-1 .1-.5v.4l-.4 1.1a3146.2 3146.2 0 0 0-6.1 19.6c-4.2 13-10 30.9-16.6 50.6-6.5 19.8-14.3 42.7-18.5 55.7" fill="#E0E0E0"/><path d="m732.8 301.2.4.8 1 2.2c1 1.9 2 4.5 3.2 7.4l3 7.4.8 2.3c.3.5.4.8.3.8l-.4-.8-1-2.2c-.9-1.9-2-4.5-3-7.4a229.9 229.9 0 0 0-4.2-10.5ZM742.7 322.1s5.2-2.6 11.8-5.5c6.5-3 11.9-5.4 12-5.3l-11.9 5.6c-6.5 3-11.9 5.3-12 5.2ZM731.3 352l.8-.2 2.5-.3a193.9 193.9 0 0 0 18.5-3.5 73 73 0 0 1-10.4 2.5c-3.1.6-6 1-8 1.2l-2.5.3h-1ZM718.2 335l.5.7 1.5 1.7a392.5 392.5 0 0 1 9.4 11.8l1.4 1.9.4.7-.6-.6-1.4-1.8a411.3 411.3 0 0 1-9.4-11.8l-1.4-1.8-.4-.7ZM704.7 360.1l.8.8 1.8 2.3a797.8 797.8 0 0 1 12.2 15l1.8 2.3.6 1-.7-.9-1.9-2.2a780.4 780.4 0 0 1-12.2-15l-1.8-2.4-.6-.9ZM721.7 380.8l1.1-.2 3-.6a315.4 315.4 0 0 0 20.3-4.4l3-.8 1.2-.2-1 .4-3.1.9a187.9 187.9 0 0 1-24.5 4.9Z" fill="#E0E0E0"/><path d="M800 391.7c0 .1-179.1.3-400 .3-221 0-400-.2-400-.3 0-.1 179-.3 400-.3 220.9 0 400 .2 400 .3ZM489.3 191.6l-9.5 8.2 12.8 14.8 9.5-8.2-12.8-14.8Z" fill="#18161B"/><path d="m498.2 191.7-19.5 16.8-13.8-16a49.2 49.2 0 0 1 19.6-16.8l13.7 16Z" fill="#555359"/><path d="M482 205.7c-.2 0-3.5-3.6-7.5-8.1-4-4.6-7-8.4-7-8.5.1 0 3.4 3.5 7.4 8.1s7.1 8.4 7 8.5ZM485.7 202.5l-2.3-2.5-5-6-5-6.2-1.6-2-.5-.6a308.1 308.1 0 0 1 14.4 17.3ZM490.6 198.2l-2.2-2.5c-1.3-1.6-3.2-3.7-5.1-6.2l-5-6.2a3998 3998 0 0 0-2-2.7l2.2 2.4a248.9 248.9 0 0 1 12.1 15.2ZM495.1 194.2s-3.4-3.6-7.3-8.2c-4-4.6-7-8.5-7-8.5.2-.1 3.5 3.5 7.4 8.2 4 4.6 7 8.4 7 8.5ZM657.6 203l-8.7-9.1-14 13.5 8.6 9 14.1-13.4Z" fill="#18161B"/><path d="m658 211.8-17.8-18.6 15.2-14.6c7.9 5 14 11.2 17.8 18.7L658 211.8Z" fill="#555359"/><path d="M643.2 196.3c-.1 0 3.3-3.6 7.7-7.8 4.3-4.2 8-7.5 8-7.4.1 0-3.3 3.6-7.7 7.8-4.3 4.2-8 7.5-8 7.4ZM646.6 199.9s.8-1 2.3-2.4a400 400 0 0 1 5.8-5.4l5.9-5.3 1.8-1.6.7-.6c.2.2-3.5 3.7-8 8a310.3 310.3 0 0 1-8.5 7.3ZM651 204.6l2.4-2.4a448 448 0 0 1 13.8-12.3l.7-.6s-.8 1-2.3 2.4a242.2 242.2 0 0 1-14.5 12.9ZM655.3 208.9c0-.1 3.4-3.6 7.8-7.8 4.4-4.1 8.1-7.5 8.2-7.4.1.1-3.4 3.6-7.8 7.8-4.4 4.2-8 7.5-8.2 7.4ZM577.7 159.7H563v23.1h14.8v-23Z" fill="#18161B"/><path d="M585.7 166.6H555v-25a58.3 58.3 0 0 1 30.6 0v25Z" fill="#6A34BD"/><path d="m586 141.8-1 .6-3.3 1.1a36.7 36.7 0 0 1-17.4 1.3 37.3 37.3 0 0 1-9.3-2.9l4.5 1.4a42.9 42.9 0 0 0 22-.1l4.5-1.4ZM565.2 166.6c-.1 0-.2-4.8-.2-10.7 0-6 0-10.7.2-10.7s.3 4.8.3 10.7c0 5.9-.1 10.7-.3 10.7Z" fill="#18161B"/><path d="M571 166.7c-.1 0-.2-4.8-.2-10.7 0-6 .1-10.8.2-10.8.2 0 .3 4.8.3 10.8 0 5.9-.1 10.7-.3 10.7ZM576.9 166.6c-.2 0-.3-4.8-.3-10.7 0-6 .1-10.8.3-10.8.1 0 .2 4.8.2 10.8 0 5.9-.1 10.7-.2 10.7ZM581.7 166.6c-.1 0-.3-5.2-.3-11.6 0-6.4.2-11.6.3-11.6.1 0 .3 5.2.3 11.6 0 6.4-.2 11.6-.3 11.6ZM559.7 166.4c-.1 0-.2-5.2-.2-11.6 0-6.4.1-11.6.2-11.6.2 0 .3 5.2.3 11.6 0 6.5-.1 11.6-.3 11.6Z" fill="#18161B"/><path d="M644.8 359.8a107.9 107.9 0 1 0-152.6-152.5 107.9 107.9 0 0 0 152.6 152.5Z" fill="#6A34BD"/><path d="M568.5 373.3a90.6 90.6 0 1 0 0-181.2 90.6 90.6 0 0 0 0 181.2Z" fill="#FAFAFA"/><path d="M659.1 282.7v-1.5c-.1-1 0-2.4-.2-4.3a91.9 91.9 0 0 0-12.6-40.4 91.7 91.7 0 0 0-61-42.6 89.8 89.8 0 0 0-47.6 3.8 90.6 90.6 0 0 0-49.3 43.4c-1.2 2-2.1 4.2-3 6.4a87.7 87.7 0 0 0-6 49.7c.7 4.8 2 9.5 3.4 14l2.5 6.7 3 6.4a89.8 89.8 0 0 0 73.6 48.5 89.8 89.8 0 0 0 84.4-43.9 87.3 87.3 0 0 0 10-24c1.7-7 2.3-12.7 2.6-16.4.1-2 0-3.4.2-4.3v-1.5 1.5l-.1 4.3a88.9 88.9 0 0 1-12.5 40.6 91.7 91.7 0 0 1-61.2 42.8 90.2 90.2 0 0 1-47.7-3.8 91 91 0 0 1-49.7-43.6c-1.1-2-2-4.2-3-6.4s-1.8-4.4-2.6-6.7A88.9 88.9 0 0 1 479 268c.7-4.8 2-9.5 3.4-14 .7-2.4 1.7-4.6 2.5-6.8l3-6.4A91 91 0 0 1 606.2 200a89 89 0 0 1 40.4 36.2 86.5 86.5 0 0 1 10 24.2c1.7 7 2.3 12.6 2.5 16.4v4.3l.1 1.5Z" fill="#18161B"/><path d="M645.8 279.4c-2.8.1-5.2 0-5.2-.2 0-.3 2.3-.6 5.2-.8 2.8-.2 5.2 0 5.2.2 0 .3-2.3.7-5.2.8ZM643.9 300.2c-2.8-.6-5-1.3-5-1.6 0-.2 2.4 0 5.2.7 2.8.6 5 1.3 5 1.6 0 .3-2.4 0-5.2-.7ZM636.4 319.8a15.5 15.5 0 0 1-4.3-2.9c0-.2 2.2.7 4.8 2 2.5 1.4 4.5 2.7 4.3 3-.1.2-2.3-.7-4.8-2ZM624 336.7c-2-2-3.6-3.8-3.4-4 .1-.2 2 1.3 4 3.2 2.1 2 3.7 3.8 3.5 4-.2.2-2-1.2-4.1-3.2ZM607.5 349.6a15 15 0 0 1-2.3-4.8 15 15 0 0 1 3.1 4.3c1.5 2.4 2.5 4.5 2.2 4.7-.2.1-1.6-1.8-3-4.2ZM588.1 357.6a15 15 0 0 1-.9-5.2c.3 0 1.1 2.1 1.9 4.9.7 2.8 1.1 5 .8 5.2-.3 0-1-2.2-1.8-5ZM567.3 360c0-2.8.3-5.2.6-5.2.2 0 .4 2.4.4 5.3 0 2.8-.2 5.2-.5 5.2s-.5-2.4-.5-5.3ZM546.6 356.9a15 15 0 0 1 2-4.9c.2.1-.3 2.4-1 5.2-.8 2.7-1.7 5-2 4.8-.3 0 .2-2.3 1-5.1ZM527.5 348.3c1.5-2.5 3-4.3 3.2-4.2.2.1-.8 2.2-2.3 4.7-1.5 2.5-3 4.3-3.2 4.2-.3-.2.8-2.3 2.3-4.7ZM511.4 334.9c2.1-2 4-3.4 4.2-3.2.2.2-1.4 2-3.5 4-2 1.9-4 3.3-4.2 3.1-.2-.2 1.4-2 3.5-4ZM499.5 317.7a15 15 0 0 1 4.9-2 15 15 0 0 1-4.4 2.9c-2.6 1.3-4.8 2.2-4.9 1.9-.1-.3 1.8-1.5 4.4-2.8ZM492.7 297.9a15 15 0 0 1 5.2-.6c0 .3-2.2 1-5 1.6-2.9.6-5.2.8-5.2.5-.1-.3 2.1-1 5-1.5ZM491.4 277c2.8.2 5.1.6 5.1.8 0 .3-2.3.3-5.2.2-2.9-.2-5.2-.6-5.2-.9 0-.3 2.4-.3 5.3-.1ZM495.7 256.5c2.7 1 4.8 2 4.8 2.2-.1.2-2.4-.3-5.1-1.3-2.7-1-4.9-1.9-4.8-2.2.1-.3 2.4.3 5.1 1.3ZM505.4 238c2.4 1.6 4.2 3.1 4 3.3-.1.2-2.2-1-4.5-2.6-2.4-1.6-4.2-3.1-4-3.4.1-.2 2.2 1 4.5 2.6ZM519.7 222.6c1.9 2.3 3.2 4.2 3 4.4a15 15 0 0 1-3.7-3.7c-1.9-2.2-3.2-4.2-3-4.4.3-.1 2 1.5 3.7 3.7ZM537.6 211.7c1.2 2.7 2 4.9 1.7 5-.3.1-1.4-2-2.6-4.6-1.2-2.6-2-4.8-1.6-5 .2 0 1.4 2 2.5 4.6ZM557.8 206c.4 3 .5 5.3.3 5.3-.3 0-.9-2.2-1.3-5-.4-3-.5-5.3-.3-5.3.3 0 .9 2.2 1.3 5ZM578.7 206c-.3 2.8-.9 5.1-1.1 5.1-.3 0-.2-2.4.1-5.2.4-2.9.9-5.2 1.2-5.1.3 0 .2 2.3-.2 5.2ZM599 211.5a15.4 15.4 0 0 1-2.5 4.6c-.3 0 .4-2.3 1.5-5 1.1-2.6 2.2-4.7 2.5-4.6.3.1-.4 2.4-1.6 5ZM616.9 222.3c-1.8 2.2-3.4 4-3.6 3.8a15 15 0 0 1 2.8-4.4c1.8-2.3 3.4-4 3.6-3.8.3.2-1 2.2-2.8 4.4ZM631.3 237.5a15.1 15.1 0 0 1-4.5 2.6c-.1-.2 1.6-1.7 4-3.4 2.2-1.7 4.3-3 4.4-2.7.2.2-1.5 1.8-3.9 3.5ZM641.2 256a15 15 0 0 1-5 1.3c-.2-.2 2-1.2 4.6-2.3 2.7-1 5-1.6 5-1.3.2.3-2 1.3-4.6 2.3ZM645.6 276.4c-2.8.3-5.2.2-5.2 0 0-.3 2.3-.7 5.2-1 2.8-.2 5.2-.2 5.2 0 0 .4-2.3.8-5.2 1Z" fill="#18161B"/><path d="m533.4 184.7-.4.1-.9.4-3.5 1.4a104.3 104.3 0 0 0-64.2 94v4.8l-.1.3v-1.3c0-.9-.2-2.2-.1-3.8a98.5 98.5 0 0 1 6.2-34.2 104 104 0 0 1 37.3-48.6 105.7 105.7 0 0 1 20.8-11.4l3.6-1.3 1-.3.3-.1ZM563.5 178.8a296.1 296.1 0 0 0-18.2 2.4l-3.1.4s1.1-.4 3-.8a107.6 107.6 0 0 1 18.3-2Z" fill="#fff"/><path d="M496.1 337.1s47 74.1 119.8 36.2c76-39.6 34-130.4 34-130.4s35.8 72.3-38.3 119.5c-18.5 11.8-38.6 11.8-53.9 10.2-39.2-3.9-61.6-35.5-61.6-35.5Z" fill="#18161B" opacity=".4"/><path d="M593.8 234.5c.4 13.3 0 26.6-1.2 39.9-.5 4.7-1 9.6-2.9 14-1.8 4.5-5 8.6-9.4 10.5-4.4 1.8-10.1 1-13.2-2.6l26.7-61.8Z" fill="#E0E0E0"/><path d="m566.6 275.5 32.9-55.4-19.9 62.6-10.1 3-3-10.2Z" fill="#6A34BD"/><path d="M599.5 220.1 575 276.7l4.5 6 19.9-62.6Z" fill="#18161B" opacity=".4"/><path d="M569.5 296.3a10.6 10.6 0 1 0 0-21.2 10.6 10.6 0 0 0 0 21.2Z" fill="#FAFAFA"/><path d="M580 285.7s0-1-.4-2.5A10.5 10.5 0 0 0 566 276a9.8 9.8 0 0 0-4.8 3.6 10.4 10.4 0 0 0 0 12.2 10 10 0 0 0 4.8 3.6 10.4 10.4 0 0 0 9.9-1.4c2.3-1.8 3.4-4.1 3.8-5.7l.5-2.6s0 1-.3 2.6a10.6 10.6 0 0 1-8.3 8 10.9 10.9 0 0 1-13-10.6 10.9 10.9 0 0 1 13-10.6 10.7 10.7 0 0 1 8.3 8c.4 1.7.3 2.6.3 2.6Z" fill="#18161B"/><path d="M577.2 287.3a7.9 7.9 0 1 0-15.5-3.1 7.9 7.9 0 0 0 15.5 3Z" fill="#555359"/><path d="M438 390.8h52.2l-24.3-209.4L438 390.8Z" fill="#E0E0E0"/><path d="m181.6 181.4-33.9 211.8 289.5 3.8L466 181.4H181.6Z" fill="#FAFAFA"/><path d="M453 278.4H166l6.3-39h285.9l-5.2 39Z" fill="#EBEBEB"/><path d="M453 278.5H166l6.3-39.1h285.9l-5.2 39Zm-286.9-.1H453l5.1-39H172.4l-6.3 39Z" fill="#18161B"/><path d="m181.6 181.4-9.3 58h285.9l7.7-58H181.6Z" fill="#6A34BD"/><path d="M181.6 181.4 466 181h.3v.3l-28 210.3v.3H147.7v-.3l34-210.3-33.5 210.3-.2-.2h289.9l-.2.1 28-210.3.2.3-284.3-.2Z" fill="#18161B"/><path d="M458.2 239.4c0 .2-64 .3-143 .3-78.9 0-142.9-.1-142.9-.3 0-.1 64-.2 143-.2 78.9 0 142.9 0 142.9.2ZM453 278.4c0 .2-64.4.3-143.7.3-79.4 0-143.8-.1-143.8-.3 0-.1 64.4-.2 143.8-.2 79.3 0 143.7 0 143.7.2ZM447.1 314.3c0 .2-64.3.3-143.7.3-79.4 0-143.7-.1-143.7-.3 0-.1 64.3-.2 143.7-.2 79.4 0 143.7 0 143.7.2ZM441.3 350.2c0 .2-64.3.3-143.7.3-79.4 0-143.7-.1-143.7-.3 0-.1 64.3-.2 143.7-.2 79.4 0 143.7 0 143.7.2Z" fill="#18161B"/><path d="m188.3 392 11.8-76.3c6.6-42.2 12.1-76.3 12.2-76.3.2 0-5 34.2-11.7 76.4-6.6 42-12.1 76.2-12.3 76.2ZM232.6 392c-.1 0 5.1-34.2 11.7-76.3 6.6-42.2 12.1-76.3 12.3-76.3.1 0-5.1 34.2-11.8 76.4-6.6 42-12 76.2-12.2 76.2ZM273.7 390.5c-.1 0 5-33.9 11.6-75.6l12.1-75.5c.2 0-5 33.9-11.6 75.6a5746 5746 0 0 1-12.1 75.5ZM314.4 391.7c-.2 0 5-34.1 11.7-76.2 6.6-42 12-76.1 12.2-76 .1 0-5.1 34-11.7 76-6.6 42.1-12.1 76.2-12.2 76.2ZM355.2 391.7c-.1 0 5.1-34.1 11.7-76.2 6.6-42 12.1-76.1 12.3-76 0 0-5.1 34-11.8 76-6.6 42.1-12 76.2-12.2 76.2ZM396 392l11.8-76.4a5756 5756 0 0 1 12.2-76.2c.2 0-5.1 34.2-11.7 76.3-6.6 42.1-12.1 76.2-12.3 76.2Z" fill="#18161B"/><path d="M370.3 242.1c5-2.1 8-7.3 9.3-12.5 1.3-5.2 1-10.7 1.3-16 .2-5.5.8-11 3.6-15.6 1.6-2.8 3.9-5 5.7-7.7 1.8-2.6 3.1-5.8 2.5-9l-30.8.2 8.4 60.6Z" fill="#18161B" opacity=".2"/><path d="M242.6 281.3s0 .2-.3.4a170 170 0 0 1-4.4 4.4 355.6 355.6 0 0 1-28.2 24.5l-1 .8-.4.2.3-.3 1-.9a1087.1 1087.1 0 0 0 28-24.6l3.7-3.3 1-1 .3-.2Z" fill="#18161B"/><path d="M240.4 312s-.5-.3-1.2-1.1l-3.1-3.4c-2.8-2.8-6.4-6.7-10.4-11l-10.4-10.9a2717.1 2717.1 0 0 1-3-3.4l3.3 3.2a503.4 503.4 0 0 1 24.8 26.7Z" fill="#18161B"/><path d="m251 290.5.4-.8a15.3 15.3 0 0 1 11.7-8.4 17.5 17.5 0 0 1 11.2 2.5c2.5 1.5 4.8 3.7 6.5 6.5a17 17 0 0 1 2.8 10c-.1 1.8-.7 3.6-1.7 5.3-1 1.6-2.5 3-4.2 4.2a20 20 0 0 1-18.2 1.7c-2.1-.9-4-2.1-5.6-3.8a12.7 12.7 0 0 1-3-6.3 16 16 0 0 1 .6-7.2c1.5-4.6 4.8-8.8 9.3-11.2a17 17 0 0 1 21.4 4.1 15.1 15.1 0 0 1 1.6 15.6 13.8 13.8 0 0 1-5.6 6 20.2 20.2 0 0 1-23.1-2.5c-2-1.8-3.4-4.3-4-6.9-.5-2.6-.2-5.4 1.1-7.7a9.4 9.4 0 0 1 2.6-3c1-.8 2.2-1.3 3.4-1.8a28.4 28.4 0 0 1 14.7 0c2.3.7 4.5 1.8 6.3 3.5 1.7 1.6 3 3.7 3.4 6a13.3 13.3 0 0 1-4 12.3c-3 3-7.1 4.7-11.1 4.9-2 0-4-.2-5.8-.8a11.8 11.8 0 0 1-7.4-7.8 13.3 13.3 0 0 1 2.8-13.5 15.7 15.7 0 0 1 13.4-4.9 18.1 18.1 0 0 1 11 5.6l-.5-.5c-.4-.4-1-1-2-1.6a18.3 18.3 0 0 0-8.5-3.3 15.5 15.5 0 0 0-13.2 5 13 13 0 0 0-2.7 13.1 11.4 11.4 0 0 0 7.2 7.5c1.7.6 3.7.9 5.6.8 4-.2 8-1.8 11-4.8 1.5-1.5 2.7-3.3 3.3-5.4.7-2 .9-4.3.4-6.5-.4-2.2-1.6-4.3-3.2-5.8a14.9 14.9 0 0 0-6.2-3.3 27.8 27.8 0 0 0-14.4 0 9.9 9.9 0 0 0-5.6 4.5 10.9 10.9 0 0 0-1 7.4c.4 2.5 1.8 4.9 3.7 6.6a19.7 19.7 0 0 0 22.5 2.5 13.4 13.4 0 0 0 6.7-13.6 14.6 14.6 0 0 0-9-11.9c-4.7-2-10.2-1.8-14.6.7a19.2 19.2 0 0 0-9 11c-.7 2.2-1 4.5-.6 6.8a12.2 12.2 0 0 0 2.8 6c1.5 1.7 3.4 3 5.4 3.8a20.2 20.2 0 0 0 18-1.6 12 12 0 0 0 5.6-9.2c.3-3.6-1-7-2.6-9.8a20 20 0 0 0-6.5-6.4 17.3 17.3 0 0 0-11-2.5c-1 .1-2 .4-3 .7a15.3 15.3 0 0 0-8.7 7.5l-.3.7Z" fill="#6A34BD"/><path d="M278.2 318.1c0 .1-7.9 7-17.8 15.2-9.8 8.2-18 14.8-18 14.7-.1 0 7.8-6.9 17.7-15.1 9.9-8.3 18-14.9 18-14.8Z" fill="#18161B"/><path d="m279.9 347.1-1.3-1c-1-.6-2.1-1.5-3.6-2.7a1374.1 1374.1 0 0 1-22.8-18.5l-3.4-2.9-1.2-1c0-.1.5.2 1.3.9l3.5 2.7a1376.1 1376.1 0 0 1 22.9 18.6l3.4 2.8 1.2 1.1ZM361.7 318.5c0 .1-7.5 6-17 13a446 446 0 0 1-17.3 12.5s7.5-5.9 17-13c9.4-7 17.2-12.6 17.3-12.5Z" fill="#18161B"/><path d="m364.6 343.1-18-11.1a435.1 435.1 0 0 1-17.7-11.6c0-.2 8.1 4.8 18 11.1 9.8 6.3 17.8 11.5 17.7 11.6Z" fill="#18161B"/><path d="M279.5 391.7c-.1 0 7.7-8.3 17.6-18.4 9.8-10.1 17.8-18.2 18-18.1 0 .1-7.8 8.4-17.7 18.4a650 650 0 0 1-18 18.1Z" fill="#6A34BD"/><path d="M312.8 391.7s-.2-.1-.3-.4l-.9-1-3-3.9a273.7 273.7 0 0 0-22-24l-3.6-3.5-1-1-.3-.3s.2 0 .4.3l1 .9a197.5 197.5 0 0 1 28.6 31.4l.8 1 .3.5Z" fill="#6A34BD"/><path d="M230.9 349.6s.3 24.6-5.9 39.3l-37.8-6.4s11.4-23.3 8.3-36.3l35.4 3.4Z" fill="#EBEBEB"/><path d="M230.9 348.7s-4.7 30.1-7.6 39.1l-37.6-7.4s7.7-29.1 7.6-37.3l37.6 5.6Z" fill="#6A34BD"/><path d="M197.1 356.7s5.6 1.4 12.6 2.9l12.6 2.4c0-.2-5.6-1.5-12.5-3-7-1.4-12.6-2.5-12.7-2.3ZM196.2 363c0 .2 5.5 1.5 12.5 3 7 1.4 12.6 2.5 12.6 2.3 0-.1-5.5-1.4-12.5-2.9l-12.6-2.4ZM201.7 370.3l2 .6a162 162 0 0 0 12.3 2.4l-2-.6a162.7 162.7 0 0 0-12.3-2.4Z" fill="#fff"/><path d="M409.7 280.6s3.9 24 0 39.2l-37.9-.8s7.8-24.4 2.9-36.5l35-1.9Z" fill="#EBEBEB"/><path d="M409.6 279.7s-.3 30.1-1.8 39.3l-37.8-1.8s3.3-29.6 2-37.5h37.6Z" fill="#98979B"/><path d="M377.4 293.1c0 .2 5.6.3 12.7.3 7 0 12.7-.1 12.7-.2 0-.2-5.7-.3-12.7-.3-7 0-12.7 0-12.7.2ZM377.7 299.5l12.7.3c7 0 12.7-.1 12.7-.3 0-.1-5.7-.2-12.7-.2-7 0-12.7 0-12.7.2ZM384.5 305.4l2.1.2a142.2 142.2 0 0 0 12.4-.2l-2.2-.2a142.2 142.2 0 0 0-12.3.2Z" fill="#fff"/><path d="M417.8 211.6a21 21 0 0 1-18-11.4 34 34 0 0 1-3.1-22.6c2-10 8.7-18.3 16.8-20.9 7-2.2 19.4-1 25.3 8.8 4.5 7.7 4 15.5 4 15.9a3 3 0 0 1-6-.4c0-.1.4-6.5-3.2-12.4-4.5-7.5-14.4-7.4-18.2-6.2-7 2.3-11.5 9.8-12.9 16.4-1.3 6.2-.3 13 2.6 18.5 3 5.5 9 9 14.3 8.1a3 3 0 0 1 .9 6l-2.5.2ZM224 211.6a21 21 0 0 1-18-11.4 34 34 0 0 1-3.1-22.6c1.7-8.5 7.7-18.2 17-20.9 4.2-1.2 9.3-1 13.6.7l-2.2 5.6a16.1 16.1 0 0 0-9.8-.5c-6.9 2-11.4 9.6-12.7 16.3-1.3 6.3-.4 13 2.6 18.5s9 9 14.2 8.1l.9 6-2.5.2Z" fill="#18161B"/><path d="m415.3 181.5-2.8 15.2h40.6l3.6-15-41.4-.2Z" fill="#6A34BD"/><path d="M234.3 209.2a6.5 6.5 0 1 1-13 0 6.5 6.5 0 0 1 13 0ZM427.9 209.2a6.5 6.5 0 1 1-13 0 6.5 6.5 0 0 1 13 0Z" fill="#18161B"/><path d="m321.3 84.1-10.7 40.3-36.6 4v6.5l51.5 1.8 9.7-45.2-14-7.4Z" fill="#FFBE9D"/><path d="M336.7 137.7s-57.3-2.7-73.6 10c-16.3 12.9-8.5 33.7-8.5 33.7l92.3-.3 8-46.7-18.2 3.3Z" fill="#18161B"/><path d="M346.5 168.6h-.9l-2.3-.3-8.6-1.3c-7.3-1.2-17.2-3.3-28-6.5-5.3-1.6-10.4-3.2-15.1-4.4-4.7-1-9-1.8-12.7-2-3.7-.1-6.6.1-8.6.5-1 .1-1.8.4-2.3.5l-.9.1.8-.2 2.3-.6c2-.4 5-.8 8.7-.6 3.7 0 8 .8 12.8 1.9 4.7 1.1 9.8 2.7 15.2 4.3a276.7 276.7 0 0 0 36.4 8l2.4.4.8.2ZM293.2 155.9c-.1 0-2-2-5-3.6s-5.9-2-5.9-2.1l1.9.1a16.6 16.6 0 0 1 7.8 4.1c.8.8 1.3 1.4 1.2 1.5Z" fill="#555359"/><path d="m342.8 262.3.8 24-5 19.3a2.5 2.5 0 0 0 4.2 2.4c3.6-3.6 17-16.8 16.8-18.5-.2-2 .9-25.5.9-25.5l-17.7-1.7Z" fill="#6A34BD"/><path d="m340.6 308.6 19-20.7v1c0 .9-.3 1.7-.9 2.4-1.5 1.8-5.8 6.7-15.8 16.7-.6.5-1.5.8-2.3.6ZM354.6 280.1c-.6.4-.8 1.4-.4 2 .4.6 1.3.8 2 .4.5-.4.8-1.5.3-2.1-.4-.6-1.5-.7-2-.2" fill="#fff" opacity=".6"/><path d="M346 298c-.1.1-.7-1.2-2.1-1.8-1.4-.7-2.8-.4-2.8-.5 0 0 .3-.3.9-.4.5 0 1.3 0 2.1.4s1.4 1 1.6 1.5c.3.5.4.8.3.8ZM344.3 301.3s-.8-.7-2.1-1c-1.2-.4-2.3-.2-2.4-.3 0-.1 1.1-.7 2.5-.3 1.5.5 2.2 1.5 2 1.6ZM349.2 293.9c-.1.1-1.3-1.1-3.2-1.8-1.9-.8-3.6-.7-3.6-.8 0-.1 1.8-.5 3.8.3 2 .7 3.1 2.2 3 2.3ZM349.6 286.5c-.1.2-1.4-.4-3.2-.4-1.7 0-3 .4-3.1.2 0-.1 1.3-.8 3.2-.7 1.8 0 3.1.8 3 1ZM349.5 279.5s-1.4-.7-3.2-.6c-1.9 0-3.1 1-3.2.8l.7-.6a5.3 5.3 0 0 1 4.9-.3c.6.3.9.6.8.7ZM346.3 277.6v-1c0-.5.2-1.4.7-2.3.2-.5.5-1 1.1-1.4a1 1 0 0 1 1.2.2c.3.3.3.7.4 1.1 0 1.5-1.4 3-3 3.3a4 4 0 0 1-4-2.1c-.2-.4-.3-.8-.1-1.2.1-.4.6-.6 1-.5.7 0 1.1.5 1.6.8.8.7 1.3 1.4 1.6 1.9l.4.8s-.6-1.2-2.3-2.4c-.4-.3-.9-.6-1.4-.7-.2 0-.4.1-.5.3-.1.2 0 .5 0 .8.7 1 2.1 2 3.6 1.7 1.4-.1 2.5-1.5 2.6-2.7 0-.3-.1-.6-.3-.8a.6.6 0 0 0-.6-.1c-.5.2-.8.7-1 1.1-1 1.8-.9 3.2-1 3.2Z" fill="#18161B"/><path d="M355 134.4s-24.8 46.8-25.1 55c-.4 8.1 0 83.5 0 83.5h38.3c1 0 6.8-34 5.6-41.8-1.2-7.8-5.3-49.8-5.3-49.8h22s6.1-6.4 5.9-14.7c-.1-4.5-3-13.8-6-18.7-2-3.1-14-19.6-14-19.6l-21.4 6.1Z" fill="#18161B"/><path d="M353.3 137.6v.2l-.4.8-1.5 3-2.3 4.5-1.4 2.9-1.5 3.3-7.5 16-4.5 9.6-2.3 5a27.2 27.2 0 0 0-2.3 11l-.1 5.5a627.7 627.7 0 0 0 0 28.3l.3 12v4.3-.3l-.1-.8-.1-3.3a1053.1 1053.1 0 0 1-.6-40.2l.1-5.5a30 30 0 0 1 2.3-11.2l2.4-5a5939.3 5939.3 0 0 0 13.6-28.9l1.5-2.8 2.4-4.6 1.5-2.9.4-.7.1-.2Z" fill="#555359"/><path d="m345.3 153.5-2-5.8a45 45 0 0 1-1.7-6c.1 0 1.2 2.6 2.2 5.8 1 3.3 1.6 6 1.5 6ZM373.9 229.7l-.1-.5-.3-1.6-.7-5.6-2-18.7c-.9-7.3-1.6-14-2-18.7l-.4-5.7-.1-1.5v-.6.6l.3 1.5.6 5.7 2 18.6 2 18.7.6 5.7a217 217 0 0 1 0 2Z" fill="#555359"/><path d="M364.1 9C363.5 5 367 1 371 .6c4-.4 8 2 9.8 5.6 1.9 3.6 1.7 8 .3 11.7-1 2.5-2.8 5-5.5 5.3-2.6.2-4.8-1.9-6.6-3.8" fill="#18161B"/><path d="M336 28.8c-8-17.6 11-26.4 21.3-23.4 9.7 2.7 13.9 7.5 15.5 14a32.1 32.1 0 0 1-1 19.8c-1.3 3-3.6 6.2-6.8 6.5" fill="#18161B"/><path d="M363.5 15.1c1.7.2 3 1.6 3 3.3l-1.9 44.7c0 5.2-7.8 8.2-13.4 8.1-5.7-.1-5.9-2.9-6-8l-.1-11.4s-7.2-1.2-8.7-10.6a100 100 0 0 1-.1-18.6c.3-5.6 4-12.5 9.7-12l17.5 4.5Z" fill="#FFBE9D"/><path d="M340 28c-.1.6.4 1.1 1 1.2.7 0 1.3-.5 1.3-1.1 0-.6-.5-1.2-1.1-1.2-.7 0-1.3.4-1.3 1ZM338 26.6c0 .2 1-.5 2.3-.5 1.3 0 2.2.6 2.4.5 0 0-.1-.4-.5-.7a3.3 3.3 0 0 0-3.8 0l-.5.7ZM352.6 28c0 .6.5 1.1 1.2 1.2.6 0 1.2-.5 1.2-1.1 0-.6-.5-1.2-1.2-1.2-.6 0-1.2.4-1.2 1ZM350.7 26.8c.1.2 1-.5 2.3-.5 1.3 0 2.3.7 2.4.5.1 0 0-.3-.5-.6a3.3 3.3 0 0 0-3.8 0c-.4.3-.5.6-.4.6ZM346 36.5l-2.1-.4c-.4 0-.7-.1-.7-.3-.1-.3 0-.6.2-1l1-2.5 2.2-6.6c-.2 0-1.4 2.8-2.8 6.4l-.9 2.5c-.1.4-.3.8-.2 1.3.1.3.4.4.6.5h2.7Z" fill="#18161B"/><path d="M345 51.8s6.4.4 12.7-3.3c0 0-3 6.4-12.5 5.5l-.1-2.2ZM346.5 39.6c.5-.6 1.3-1 2.1-.9.6 0 1.1.4 1.5.8.3.5.4 1.1 0 1.6-.3.5-1 .6-1.6.4a5 5 0 0 1-2-1.4c-.1-.1-.2-.3 0-.5" fill="#EB996E"/><path d="M349.8 37.4c-.2 0-.2 1.4-1.4 2.4s-2.7.8-2.7 1c0 0 .3.3 1 .3.6 0 1.5-.2 2.2-.8a3 3 0 0 0 1.1-2c0-.6-.1-1-.2-1ZM350.1 24.6c.1.3 1.4.2 3 .3 1.5.2 2.7.6 2.9.3 0-.1-.1-.5-.6-.8a5 5 0 0 0-4.5-.5c-.6.2-.9.5-.8.7ZM338.4 22.9c.2.2 1.1 0 2.2 0 1-.1 2 .1 2.2-.2 0-.1 0-.4-.5-.7a3 3 0 0 0-1.7-.5 3 3 0 0 0-1.8.6c-.4.3-.5.6-.4.8Z" fill="#18161B"/><path d="M350.6 7.5a19 19 0 0 0-9 2.8 13 13 0 0 0-6.4 7.7c-.2.7-.3 1.5 0 2.1.6.8 1.8 1 2.6.6 1-.4 1.5-1.2 2.1-2 .5 1.8 2.2 3 4 3 1.8 0 3.4-1.3 3.8-3 0 1.7 1.9 3.2 3.7 3.2 1.8 0 3.4-1.5 4-3.2.3 1.6.7 3.3 1.6 4.6 1 1.3 2.7 2.2 4.3 1.7a8.3 8.3 0 0 0 0 4.2c.5 1.4 2.5 24 3.9 23.5 1.3-.4 1.2-23.5 1.5-24.8.6-2.6 1.1-5.3 1-8 0-2.6-.7-5.3-2.4-7.4a12.7 12.7 0 0 0-6.8-4.2c-2.7-.7-5.5-.8-8.2-.7" fill="#18161B"/><path d="m369.5 48.7-.3.1-.9.2a7 7 0 0 1-3.3-.3 7.1 7.1 0 0 1-3.9-3 9.7 9.7 0 0 1-1.2-6c.2-2 .6-4 .9-5.8a47.8 47.8 0 0 0 .6-8.1 35.5 35.5 0 0 1-.1 8.1c-.3 1.9-.7 3.8-.9 6-.1 2 .2 4 1.1 5.5 1 1.6 2.4 2.5 3.6 3 1.3.4 2.4.5 3.2.4l1.2-.1Z" fill="#18161B"/><path d="M347.3 6.3s.5.8.5 2.3c0 1.4-.4 3.4-2 5a7.3 7.3 0 0 1-5 2.3c-1.4 0-2.3-.4-2.3-.4h2.3c1.3-.1 3.2-.7 4.7-2.2 1.4-1.5 1.9-3.4 2-4.8 0-1.3-.3-2.1-.2-2.2ZM348.7 17.4s0 .6-.7 1.3c-.7.7-2 1.3-3.6 1.2a7.8 7.8 0 0 1-4.7-2.1l1.4.6c.8.4 2 1 3.4 1a5 5 0 0 0 3.2-1c.7-.5 1-1 1-1ZM371.4 14.5l-.2 2.6c-.3 1.5-.8 3.8-2.3 5.8-1.5 2-3.8 3-5.4 3a5 5 0 0 1-1.9-.2c-.4 0-.6-.2-.6-.2 0-.1 1 .3 2.5 0a8 8 0 0 0 5-3c1.4-1.8 2-4 2.3-5.5l.6-2.5Z" fill="#555359"/><path d="M373 19c.1 0 .2.4.2.9V22a11 11 0 0 1-2.4 6.7c-1 1-2.1 1.9-3.3 2.3-1.2.4-2.4.3-3.3.2-1-.2-1.7-.6-2-.9l-.7-.6s1 .8 2.7 1.1c1 .1 2 .1 3.1-.3a7.4 7.4 0 0 0 3-2.1c2-2.1 2.4-4.7 2.6-6.5l.2-3ZM241.3 140 223 181.5h25l17.8-41.9-24.6.4Z" fill="#555359"/><path d="m228 95.8 20.5 40.3h64.6l-2.6-5.3-18.7-.5-15.3-34c-.9-2-3-3.4-5.3-3.4h-41.3a2 2 0 0 0-1.9 3Z" fill="#E0E0E0"/><path d="M260.4 113.9a2.5 2.5 0 0 1-5 0 2.5 2.5 0 0 1 5 0Z" fill="#18161B"/><path d="M320 136.2h-79v3.8h79v-3.8Z" fill="#555359"/><path d="m295.7 138 24 43.5h11.5l2.5-5 2.3-5.2-16-31.3-24.3-2Z" fill="#555359"/><path d="M337.4 63.6s-14 5-17 20.5l14.8 7.4 2.2-27.9Z" fill="#6A34BD"/><path d="M337.4 63.6s-9.8 21.9-9.4 33.8c.1 4.2 2.9 15 2.9 15l5 26.9s38.9-5.3 39.7-5.3c.9 0-1.3-22-1.3-22l6.3-42.4s-2.9-5.8-16-7.8c-7.8-1.2-27.2 1.8-27.2 1.8Z" fill="#6A34BD"/><path d="M333.8 76.3s-1 1.7-2.2 4.5a40.6 40.6 0 0 0-2.7 23.5c.6 3 1.2 4.8 1.1 4.9l-.5-1.3-.4-1.5-.5-2a36.3 36.3 0 0 1 .7-18.6c.6-2 1.3-3.7 2-5.1l.9-2 .8-1.3c.5-.7.7-1.1.8-1Z" fill="#18161B"/><path d="m342.1 63.4.6-6a2.6 2.6 0 0 1 2.5-2.3l19.1-.3c1.2 0 2.3 1 2.3 2.1l.5 6.5s-2 5-7.7 7.8c-5.6 2.7-14.3 2.8-14.3 2.8l-3-10.6Z" fill="#6A34BD"/><path d="M347.1 55.2s-.2.3-.3 1c-.2.6 0 1.6 0 2.7.2 2 .2 3.8 0 3.8-.1 0-.4-1.7-.5-3.8 0-1-.1-2 .1-2.8.3-.7.7-1 .7-1ZM351.7 62.6a14 14 0 0 1-.5-3.8v-2.7c.1-.7.4-1 .5-1l-.1 1 .2 2.7v3.8ZM357.5 62.4c-.2 0-.5-1.6-.8-3.6-.3-2-.4-3.7-.2-3.8.1 0 .5 1.7.7 3.7.3 2 .4 3.7.3 3.7ZM362.4 62.8c-.1 0-.5-1.7-.7-4-.2-2.2 0-4 .1-4 .2 0 .3 1.7.4 4 .2 2.2.4 4 .2 4Z" fill="#18161B"/><path d="M366.2 85.7c-.7 6.8-.2 18.3 2.1 24.7l11.2-18.5-13.3-6.2Z" fill="#18161B" opacity=".3"/><path d="M379.6 68.2c3.2 3.4 5.5 7.4 6.8 11.9l2 9.4-22 3.4s-1.8-5.3-.8-12.3c1-7.1 14-12.4 14-12.4Z" fill="#6A34BD"/><path d="M388.5 89.5h-.4l-1.3.3-4.7.8-16 2.4h-.3v-.3a176.3 176.3 0 0 1 .1-14.5 17 17 0 0 1 2.6-8.1 12 12 0 0 1 5.5-4.7l.5-.2-1.8 1c-1.1.7-2.6 2-3.9 4a17 17 0 0 0-2.4 8c-.2 3.2-.2 6.7-.2 10.4l.2 4.1-.3-.2 16-2.3 4.7-.6 1.2-.1h.5Z" fill="#18161B"/><path d="M342 75.7c-.1 0-1.5-1-3-2.4a14.8 14.8 0 0 1-2.8-2.8c.1 0 1.5 1 3 2.4 1.7 1.4 3 2.7 2.8 2.8ZM339 87.2c.1.2-1.1 1-2.7 2-1.5 1-2.9 1.7-3 1.6 0-.2 1.2-1 2.8-2 1.5-1 2.9-1.7 3-1.6ZM351.3 90v-4.2c.1-2.3.4-4.3.5-4.2.2 0 .2 1.9 0 4.2-.1 2.4-.4 4.3-.5 4.3ZM363.2 101.7l-2.7-3-2.8-3c.1-.2 1.6 1 3.1 2.6 1.6 1.7 2.6 3.3 2.4 3.4ZM365 77.5s-1.3 1.1-3 2.2a13 13 0 0 1-3.2 1.9c0-.1 1.2-1.2 3-2.3 1.6-1.1 3-2 3.1-1.8ZM354.1 68.7c.1.1-1.3 1.2-3.1 2.4-1.9 1.1-3.4 2-3.5 1.9 0-.1 1.3-1.2 3.2-2.4 1.8-1.2 3.4-2 3.4-1.9ZM363.9 72.2c-.2 0-.9-1.4-1.6-3.1-.7-1.8-1.1-3.3-1-3.4.1 0 .8 1.4 1.5 3.2.7 1.7 1.2 3.2 1 3.3ZM377.2 76.6l-2.2-1.9c-1.1-1.1-2-2.1-1.9-2.2.1-.1 1.1.7 2.3 1.8 1.1 1.2 2 2.2 1.8 2.3ZM371.8 86.3c-.2 0-.4-1.3-.5-3l.1-3.1c.2 0 .4 1.4.4 3v3.1ZM382.8 84.3c0 .2-1.5.2-3.5-.1-1.9-.3-3.4-.8-3.3-1l3.4.5 3.4.6ZM338 104.5c-.1 0-1-1.6-2-3.7a17 17 0 0 1-1.5-3.9c.1 0 1 1.6 2 3.7 1 2 1.7 3.8 1.5 3.9ZM352.7 120.2c-.2.1-1.2-1.2-2.5-2.9a13.5 13.5 0 0 1-2-3.2c.1 0 1.2 1.2 2.5 3 1.2 1.6 2 3 2 3.1ZM364.9 113.6c0 .2-1.5.9-3.4 1.6-1.9.7-3.4 1.2-3.5 1 0 0 1.5-.8 3.3-1.5 2-.7 3.5-1.2 3.6-1ZM335 126.4c-.2 0 .2-1.3.9-2.7l1.4-2.6c.2.1-.3 1.3-1 2.8-.6 1.4-1.2 2.6-1.4 2.5ZM325.5 81.2s-.7-1-1-2.5c-.2-1.6 0-2.8.2-2.8l.4 2.7c.2 1.4.6 2.6.4 2.6ZM342.2 116.3c0 .1-1.4-.5-3-1.4a10 10 0 0 1-2.6-1.8s1.4.5 3 1.4c1.5.9 2.7 1.7 2.6 1.8ZM351.9 99.6c.1.1-1 1.4-2.7 2.8-1.5 1.4-2.9 2.5-3 2.4a14 14 0 0 1 2.7-2.8l3-2.4Z" fill="#FAFAFA"/><path d="M346 99.3a17 17 0 0 0 4.4 9.3c2.5 2.5 6.4 3.7 9.7 2.4.6-.3 1.3-.7 1.5-1.4.2-.8-.5-1.7-1.3-2-.7-.3-1.6-.3-2.5-.3-4.8-.3-9.4-3.3-11.6-7.6" fill="#18161B" opacity=".3"/><path d="m359 107.4-.7.1h-1.8a12.2 12.2 0 0 1-5.7-2.2 14 14 0 0 1-2.6-2.3 11.3 11.3 0 0 1-2.2-4l-.1-.7 1.1 2.2a13.7 13.7 0 0 0 9.5 6.6c1.5.3 2.5.2 2.5.3Z" fill="#18161B"/><path d="m304 123.5 14.4-1.7 10.2 6.7 39-9.4 1-26.7 17.3-2.3v32.3c-.1 8.3-7 14.8-15.2 14.6l-57.2-1.6-2.4-4.9-12.3-.3 5.1-6.7Z" fill="#FFBE9D"/><path d="m367.2 119.1-.8.2-2 .6-8 2-25.8 6.2-2.4.6h-.1l-10.3-6.8h.1l-14.4 1.7-3.8 4.8a161.6 161.6 0 0 1-1 1.3l.9-1.3 3.7-5h.1l14.5-1.9h.1l10.3 6.8h-.2l2.4-.6 25.9-6.2 7.9-1.8 2.1-.5.8-.1Z" fill="#EB996E"/><path d="M311.8 127.7s-2.5.2-5.6.2h-1 .1l-3.6 2.7c-.1 0 1.3-1.4 3.3-3.1h1.2c3.1 0 5.6 0 5.6.2ZM374.4 123.5c-.2 0-1-1.8-2.9-3-2-1.3-4-1.2-3.9-1.3 0 0 .5-.2 1.3 0a6.7 6.7 0 0 1 5 3l.5 1.3Z" fill="#EB996E"/><path d="M124.2 337.1H59v9h65.3v-9Z" fill="#18161B"/><path d="M124.3 346.2H58.8V337h65.5v9.2ZM59 346h65.1v-8.8h-65v8.8Z" fill="#18161B"/><path d="m65 343.1 9.4 46.4H109l9.1-43.4-53.2-3Z" fill="#18161B"/><path d="m65 385.1 5 7h42.3l6-7H65Z" fill="#555359"/><path d="M89.1 344.5c-.1 0-.3-21.5-.4-48l.1-48c.2 0 .3 21.5.4 48v48ZM103.7 290.7l-.2.5-.6 1.4-.4 1-.5 1.2-.5 1.4-.4 1.6a66.5 66.5 0 0 0-2.9 18 134.5 134.5 0 0 0 1.1 23.8l.2 1.5v.5l-.1-.5-.3-1.5a119.6 119.6 0 0 1-.3-33.9c.6-3 1.2-5.7 2-8l.5-1.6.5-1.4.5-1.2.5-1 .6-1.3.3-.5Z" fill="#18161B"/><path d="m102 273.3-.2.7-.7 2-.5 1.5-.5 1.7-1.3 4.3-.6 2.4-.6 2.8c-.5 1.8-.8 3.9-1.2 6a179.2 179.2 0 0 0-1.8 47.3l.2 2v.8l-.1-.7-.3-2.1-.3-3.4-.3-4.4a183.9 183.9 0 0 1 2.1-39.6c.5-2.1.8-4.2 1.3-6l.6-2.8.7-2.4 1.3-4.3.6-1.7.5-1.4.8-2 .3-.7ZM85 348.3v-.3l-.1-.7-.2-2.9L84 334c-.5-8.8-1.4-21-2.8-34.5-.8-6.7-1.7-13-2.6-18.8l-1.4-8.2-1.4-7.1-1.3-5.9-1-4.3-.8-2.8-.1-.7v-.3.3l.2.7.8 2.7 1.1 4.4c.4 1.7 1 3.6 1.4 5.8l1.5 7.1 1.4 8.2c1 5.8 1.9 12.2 2.6 18.9a614.1 614.1 0 0 1 3.3 45v2.8l.1.7v.3Z" fill="#18161B"/><path d="M88.6 258.8c-.3-3-3.4-5.3-6.4-5.3-3.1 0-6 1.8-7.8 4.2a24.2 24.2 0 0 0-3.8 8.3c-2 7.2-3.1 14.7-2.3 22.1 1 7.4 4 14.7 9.2 20 .9.8 2 1.6 3.2 1.4.7-.1 1.2-.6 1.7-1a49.5 49.5 0 0 0 16-37.7c0-2.8-.4-5.7-2-8-1.5-2.4-5.2-5-7.8-4ZM65.7 234.4l-4.3 7.8c0 .2-.2.4-.4.4s-.4-.1-.5-.3L49 224.8l2.6-1.5 14 11.1Z" fill="#6A34BD"/><path d="m65.7 234.4-4.3 7.8c0 .2-.2.4-.4.4s-.4-.1-.5-.3L49 224.8l2.6-1.5 14 11.1Z" fill="#18161B" opacity=".2"/><path d="m88.8 248.5-38.8-23c-.4-.1-.8-.4-1-.9-.1-.5.3-1.1.7-1.5a26.8 26.8 0 0 1 20.8-8.2c7.7.6 15 5 18.8 11.7a21.4 21.4 0 0 1-.5 21.9Z" fill="#6A34BD"/><path d="M55.6 218.3h.5l1.5-.2a29 29 0 0 1 13 2.8 31.8 31.8 0 0 1 14.4 13 31.5 31.5 0 0 1 4 12.7l.1 1.5v.5l-.2-2a33.5 33.5 0 0 0-10.3-20 32.5 32.5 0 0 0-21-8.3h-2Z" fill="#18161B"/><path d="m83.6 232.7-2 .9a77.2 77.2 0 0 1-12 3.5l2-.7 5-1.5 4.9-1.6 2-.6ZM77.5 216.3s.4 1.9.4 4.3 0 4.3-.2 4.3c-.1 0-.2-2-.2-4.3-.1-2.4-.2-4.3 0-4.3ZM49.7 225.1l2.8-1a121.8 121.8 0 0 1 17-3.7l-3 .7a470.4 470.4 0 0 0-16.8 4Z" fill="#18161B"/><path d="M71 251.6a16 16 0 0 0-11.1-2.8c-4.2.1-8.3 1.4-12.1 3-6.6 3-12.7 7.2-16.6 13.2-4 6-5.3 13.9-2.4 20.4.3.6.7 1.3 1.3 1.6.7.3 1.5 0 2.2-.2a123 123 0 0 0 21.8-8.7 41 41 0 0 0 16.8-16c.9-1.6 1.6-3.4 1.7-5.3.2-1.9-.3-3.9-1.7-5.2Z" fill="#6A34BD"/><path d="m71 250.8-.5.3-1.6.5-1.1.4-1.4.5c-.9.4-2 .7-3.1 1.3l-1.9.8-2 1-4 2.4a72.2 72.2 0 0 0-16.5 14.5l-2.9 3.8-1.2 1.8-1 1.7c-.8 1-1.3 2-1.8 3l-.7 1.2-.5 1-.7 1.6-.3.5.2-.6.6-1.5.5-1.1.7-1.3 1.6-3 1-1.7 1.3-1.9 2.8-3.8a69.7 69.7 0 0 1 16.6-14.6c1.5-.8 2.8-1.7 4.2-2.3l2-1 1.8-.8c1.2-.6 2.3-1 3.3-1.3l1.3-.5c.4 0 .8-.2 1.1-.3l1.6-.4.6-.2ZM45 265a78 78 0 0 1-8.2 2.6 80.2 80.2 0 0 1-8.3 2.2 81 81 0 0 1 8.2-2.7c4.5-1.3 8.2-2.3 8.2-2.1Z" fill="#18161B"/><path d="M44.6 282.9s-.2-1-.2-2.5a114.8 114.8 0 0 1 .7-14.8v2.6l-.2 6a2248.4 2248.4 0 0 0-.3 8.7ZM60 275c-.2 0-.6-4.3-1-9.8-.4-5.4-.6-9.8-.4-9.8l.9 9.8c.4 5.5.6 9.9.4 9.9ZM40.8 255l2.6-.1a253.5 253.5 0 0 1 15.1.7H56a253.4 253.4 0 0 1-15-.6ZM79.2 310.1v-.5l-.1-1.5a90.7 90.7 0 0 1 .4-14 129.5 129.5 0 0 1 8-33.3l.6-1.4.2-.5-.1.5-.5 1.5a141.5 141.5 0 0 0-8.5 47.2v2Z" fill="#18161B"/><path d="m81.2 283.6-1.5 1.7a83.3 83.3 0 0 1-10.2 8.6l1.7-1.5 4.1-3.6 4.2-3.7 1.7-1.5ZM93.5 293.5l-1.6-2.2-3.9-5.6c-1.4-2.2-2.8-4-3.9-5.6l-1.5-2.3 1.8 2.1a116 116 0 0 1 9.1 13.6ZM87.1 262.4c0 .1-4 2.9-9.1 6.1-5.1 3.3-9.3 5.9-9.4 5.8 0-.1 4-2.9 9.1-6.1 5.1-3.3 9.3-6 9.4-5.8ZM98.6 274.8c0 .1-2.8-2.4-6.2-5.7a76 76 0 0 1-5.8-6c0-.1 2.8 2.4 6.2 5.7 3.3 3.2 5.9 6 5.8 6Z" fill="#18161B"/><path d="m101.5 274.6 3.5-.3c2.5-.2 5-1 7-2.2 1.2-.6 2.3-1.2 3.4-1.6 4.3-1.8 9.2-1.5 13.8-1.7 7.6-.4 15.2-2.3 22-5.6a2 2 0 0 0 1-1c.7-1.2-.6-2.4-1.8-3.1-5.9-3.6-11.9-7.3-18.6-9.1a24.4 24.4 0 0 0-20 2.4c-6.7 4.6-9.2 14.1-10.3 22.2Z" fill="#6A34BD"/><path d="m152.3 261.9-.6-.3-1.7-.9c-1.4-.7-3.5-1.9-6.1-3.1a57.1 57.1 0 0 0-9.5-3.7c-3.7-1-8-1.5-12.3-1a21 21 0 0 0-11.3 4.8 24.9 24.9 0 0 0-5.8 8.3 102.7 102.7 0 0 0-2.7 6.3c.5-1.6 1.2-3.8 2.4-6.5 1.2-2.6 3-5.8 5.9-8.4 2.9-2.6 7-4.4 11.4-5 4.5-.5 8.8 0 12.5 1.1 3.7 1 7 2.5 9.5 3.8l6.1 3.3 1.6 1 .6.3Z" fill="#18161B"/><path d="m143.8 266.4-10.2-6.6-10-7c0-.2 4.7 2.8 10.3 6.6l10 7ZM139.4 252.3c0 .1-1.5.6-3.5.7-2 .2-3.7.1-3.7 0l3.6-.4 3.6-.3ZM118.9 248.6c.1.1-.6 1.4-1.5 3a12 12 0 0 1-2 2.8l1.6-3 1.9-2.8ZM123 269a75.4 75.4 0 0 1-11.8-8.5l4.8 3.7a246 246 0 0 0 7 4.9Z" fill="#18161B"/><path d="M106.7 289.5c-3.4-1-7.4 2.3-8 5.7-.7 3.4.5 6.9 2 10 3.3 7 7.9 13.3 13.8 18 6 4.9 13.5 8 21.2 7.9-1.4-6.6.3-13.5-.4-20.1a26.3 26.3 0 0 0-23.2-23c-2.1-.2-4.6-.5-5.4 1.5Z" fill="#6A34BD"/><path d="m135.7 331-.5-.1-1.2-.9a13 13 0 0 1-3.3-4.4l-1.8-3.4-1.8-4a39.2 39.2 0 0 0-5.2-8.4c-2.3-2.7-4.7-5-6.9-7.2-2.1-2.2-4-4.4-5.2-6.3a23.1 23.1 0 0 1-3.1-6.8l.7 1.8c.5 1.2 1.3 3 2.6 4.8 1.4 2 3.2 4 5.3 6.2 2.2 2.2 4.6 4.5 7 7.2a33 33 0 0 1 5.2 8.5l1.8 4c.5 1.3 1.1 2.4 1.6 3.4 1 2.1 2.2 3.6 3.2 4.5l1.6 1.2Z" fill="#18161B"/><path d="M118.4 325.6s0-.9.3-2.2a63.4 63.4 0 0 1 3.9-12.6l-.6 2.1-1.6 5.3-1.4 5.2-.6 2.2ZM135 309.5l-2.3-.5a164.5 164.5 0 0 0-11.3-2.6l-2.4-.5 2.4.2a64.4 64.4 0 0 1 13.7 3.4ZM106 314.2s0-1 .4-2.6a85 85 0 0 1 4.1-14.7l-.6 2.5-1.7 6.1a267.4 267.4 0 0 0-2.2 8.7ZM127.4 295.5l-9.3-.8c-5.2-.5-9.3-1-9.3-1.2 0-.1 4.2.2 9.3.7 5.1.6 9.3 1.1 9.3 1.3Z" fill="#18161B"/><path d="M124.3 346c0 .2-14.6.3-32.7.3s-32.8-.1-32.8-.2c0-.2 14.7-.3 32.8-.3 18 0 32.7.1 32.7.3ZM114.1 365s-9.9.2-22 .2c-12.2 0-22.1-.1-22.1-.2 0-.2 9.9-.3 22-.3 12.2 0 22.1.1 22.1.3ZM114.5 367.7s-9.9.2-22 .2c-12.3 0-22.1-.1-22.1-.2 0-.2 9.8-.3 22-.3s22.1.1 22.1.3ZM114.5 362.7c0 .2-10.2.3-22.8.3-12.6 0-22.9-.1-22.9-.3 0-.1 10.3-.2 22.9-.2 12.6 0 22.8.1 22.8.2Z" fill="#555359"/></g></svg>