<svg width="532" height="250" fill="none" xmlns="http://www.w3.org/2000/svg"><path d="M198.5 45.2c11.3 0 20.5-9 20.5-20.1 0-11-9.2-20-20.5-20S178 14 178 25s9.2 20 20.5 20Z" fill="#6A34BD"/><path d="M234 10.2c-9.9-1.2-21.1 3.6-23.7 12.4a8 8 0 0 0-3.3-3.8 9.2 9.2 0 0 0-10.1.5 7.8 7.8 0 0 0-2.9 4l1.1.8c21 4.1 42.9 4 63.9-.3a45.5 45.5 0 0 0-25-13.6ZM473 36.4c9.9-1.6 21.1 4.7 23.7 16a10 10 0 0 1 3.3-5 7.6 7.6 0 0 1 5.1-1.6c1.9.1 3.6 1 5 2.3 1.4 1.3 2.4 3.2 2.9 5.2l-1.1 1c-21 5.4-42.9 5.2-63.9-.3 6.8-8.5 15.2-16 25-17.6ZM194 36.3c-9.9-1.2-21.1 3.9-23.7 13.1-.6-1.6-1.8-3-3.3-4a8.8 8.8 0 0 0-10.1.5 8.3 8.3 0 0 0-2.9 4.3l1.1.8c21 4.4 42.9 4.3 63.9-.3a44.8 44.8 0 0 0-25-14.4Z" fill="#E5E5E5"/><path d="M348.8 14.7s-6-2.2-9.8 6.3c-3.8 8.5-9.7 17.9-9.7 17.9l3.4.8s.8-6 3-6.8l-1 7.7s25.5 8.9 37-.9l-.5-3s1.7.5 1.7 3l1.3-1.3s-1.3-2.5-5-6c-2.6-2.1-3.5-6.4-3.7-9a11 11 0 0 0-2.6-6c-2.5-3-7.1-6.1-14.1-2.7ZM296.5 129.8l-7.1 8a48.8 48.8 0 0 0-63.7 7.2 49.6 49.6 0 0 0-1.5 65.4l-7 7.8a60 60 0 0 1 79.3-88.4ZM226.5 226.6l7.1-7.9a49 49 0 0 0 64-7.5 49.7 49.7 0 0 0 1.2-65.1l7-8a59.9 59.9 0 0 1-79.3 88.5Z" fill="#2F2E41"/><path d="M236 145.1c3.3-3.1 6.4-6.3 9.5-9.4l24 24-3.2 3.5-6-6.2c-.9 1.5-2 2.2-3.6 2.2a4 4 0 0 1-3.4-2L241 169.8c1.2.8 2 2 2 3.6-.1 1.6-1 2.7-2.3 3.4l7 7.2-3.1 3.6-25.3-25.4 9.4-9.4a5.5 5.5 0 0 0 8.4.8c2-2 2.4-5.9-1-8.4Zm14.7 4-3.2 3.3 2.3 2.2 3.2-3.2-2.3-2.2Zm-2.6 7.4-2.4-2.3-3.1 3 2.3 2.5 3.2-3.2Zm-5 5-2.4-2.3-3 3.1 2.2 2.3 3.1-3Zm-10.5 5.7 2.3 2.3 3.2-3-2.4-2.4-3 3.1ZM303.8 194.3l-9.4 9.5a5.4 5.4 0 0 0-8.5-.7 5.5 5.5 0 0 0 1 8.2l-9.5 9.4-23.9-24 3-3.3 6.2 6c.9-1.4 2-2.2 3.6-2.3 1.5 0 2.7.7 3.5 2l12.4-12.4c-2.3-1.4-3-5 .1-7l-7-7.1 3.2-3.6 25.3 25.3Zm-23.9.7 2.5 2.5 3-3.4-2.3-2.3-3.2 3.2Zm7.3-2.7 3.1-3-2.2-2.4-3.2 3.2 2.3 2.2ZM275 200l2.3 2.3 3.1-3.1-2.3-2.4-3.1 3.2Zm-2.7 7.3 3.2-3.1-2.4-2.4-3.1 3.2 2.3 2.3Z" fill="#6A34BD"/><path d="m279.3 186.7-8 8.2c-.8.8-1.3 1-2.5.5-2-1-4-.5-5.8.7l-4.6-4.6 15.6-17.6 5.3 5.5a6.7 6.7 0 0 0 0 7.3ZM249 182.5l-5.3-5.4a6.8 6.8 0 0 0 .4-7c-.2-.3-.3-.5 0-.7l8.9-9a7 7 0 0 0 3.6 1c1.3 0 2.4-.4 3.5-1l4.5 4.6-15.6 17.5Z" fill="#6A34BD"/><path d="m250.2 149.3 2.1 2-2.9 2.9-2-2 2.8-3ZM247.4 156.3l-2.8 2.8-2.1-2.1 2.8-2.8 2 2.1ZM242.5 161.2l-2.8 2.8-2.1-2 2.8-2.9 2 2.1ZM232.7 166.9l2.8-2.9 2 2.1-2.8 2.9-2-2.1ZM280.5 195.2l2.9-2.8 2 2-2.7 3-2.2-2.2ZM287.5 192.4l-2-2 2.8-3 2 2.1-2.8 2.9ZM275.6 200.1l2.8-2.8 2.1 2.1-2.8 2.8-2-2ZM272.8 207.2l-2.1-2.1 2.8-2.9 2.1 2.1-2.8 2.9Z" fill="#fff"/><path d="m297.2 130.8 7.9 7-79.3 87.8a58 58 0 0 1-7.9-7l79.3-87.8Z" fill="#2F2E41"/><path d="M236 145.1c3.3-3.1 6.4-6.3 9.5-9.4l24 24-3.2 3.5-6-6.2c-.9 1.5-2 2.2-3.6 2.2a4 4 0 0 1-3.4-2L241 169.8c1.2.8 2 2 2 3.6-.1 1.6-1 2.7-2.3 3.4l7 7.2-3.1 3.6-25.3-25.4 9.4-9.4a5.5 5.5 0 0 0 8.4.8c2-2 2.4-5.9-1-8.4Zm14.7 4-3.2 3.3 2.3 2.2 3.2-3.2-2.3-2.2Zm-2.6 7.4-2.4-2.3-3.1 3 2.3 2.5 3.2-3.2Zm-5 5-2.4-2.3-3 3.1 2.2 2.3 3.1-3Zm-10.5 5.7 2.3 2.3 3.2-3-2.4-2.4-3 3.1ZM303.8 194.3l-9.4 9.5a5.4 5.4 0 0 0-8.5-.7 5.5 5.5 0 0 0 1 8.2l-9.5 9.4-23.9-24 3-3.3 6.2 6c.9-1.4 2-2.2 3.6-2.3 1.5 0 2.7.7 3.5 2l12.4-12.4c-2.3-1.4-3-5 .1-7l-7-7.1 3.2-3.6 25.3 25.3Zm-23.9.7 2.5 2.5 3-3.4-2.3-2.3-3.2 3.2Zm7.3-2.7 3.1-3-2.2-2.4-3.2 3.2 2.3 2.2ZM275 200l2.3 2.3 3.1-3.1-2.3-2.4-3.1 3.2Zm-2.7 7.3 3.2-3.1-2.4-2.4-3.1 3.2 2.3 2.3Z" fill="#6A34BD"/><path d="m279.3 186.7-8 8.2c-.8.8-1.3 1-2.5.5-2-1-4-.5-5.8.7l-4.6-4.6 15.6-17.6 5.3 5.5a6.7 6.7 0 0 0 0 7.3ZM249 182.5l-5.3-5.4a6.8 6.8 0 0 0 .4-7c-.2-.3-.3-.5 0-.7l8.9-9a7 7 0 0 0 3.6 1c1.3 0 2.4-.4 3.5-1l4.5 4.6-15.6 17.5Z" fill="#6A34BD"/><path d="m250.2 149.3 2.1 2-2.9 2.9-2-2 2.8-3ZM247.4 156.3l-2.8 2.8-2.1-2.1 2.8-2.8 2 2.1ZM242.5 161.2l-2.8 2.8-2.1-2 2.8-2.9 2 2.1ZM232.7 166.9l2.8-2.9 2 2.1-2.8 2.9-2-2.1ZM280.5 195.2l2.9-2.8 2 2-2.7 3-2.2-2.2ZM287.5 192.4l-2-2 2.8-3 2 2.1-2.8 2.9ZM275.6 200.1l2.8-2.8 2.1 2.1-2.8 2.8-2-2ZM272.8 207.2l-2.1-2.1 2.8-2.9 2.1 2.1-2.8 2.9Z" fill="#fff"/><path d="M365.5 249h-209V107.2h209V249Zm-207.6-1.4H364v-139H158v139Z" fill="#CCC"/><path d="M369.8 109.4a5.2 5.2 0 0 0-2.4-7.5l-16.1-44-9.7 5.6 19 41.5a5.2 5.2 0 0 0 6.2 6.6 5.2 5.2 0 0 0 3-2.2Z" fill="#FFBE9D"/><path d="m356 65.2-11.1 3a2.3 2.3 0 0 1-2.9-2l-1.4-11.5a6.4 6.4 0 0 1 4.6-7.8 6.4 6.4 0 0 1 7.8 4.5l4.6 10.6a2.3 2.3 0 0 1-1.5 3.2Z" fill="#6A34BD"/><path d="M371 153h5.9l2.7-15.2H371v15.3Z" fill="#FFBE9D"/><path d="M369.5 151.1H381a7.3 7.3 0 0 1 7.4 7.4v.2h-18.9v-7.6ZM377.8 144.9h-.2l-8.1-.6a2.1 2.1 0 0 1-1.8-2.9l10.8-24.4a1.7 1.7 0 0 0-1.1-2.2c-5.1-1.3-18.2-4.9-29.5-9-4.9-1.8-8-4.4-9.1-7.7-1.6-4.3.7-8.3.8-8.5l.1-.1 10.7 1 11.5 1 25.3 13.6a9.6 9.6 0 0 1 4.2 12.3l-11.6 26.2a2.2 2.2 0 0 1-2 1.3Z" fill="#2F2E41"/><path d="M352.2 42.2a11.7 11.7 0 1 0 0-23.5 11.7 11.7 0 0 0 0 23.5ZM367.7 152.6h5.8l2.8-15.2h-8.6v15.2Z" fill="#FFBE9D"/><path d="M366.2 150.7h11.5a7.3 7.3 0 0 1 7.3 7.3v.3h-18.8v-7.6ZM374.5 146.3h-.3l-8-.6a2.1 2.1 0 0 1-1.9-2.9l10.9-24.4a1.7 1.7 0 0 0-1.2-2.2c-5-1.3-18.1-4.8-29.5-9-4.8-1.8-7.9-4.4-9-7.7-1.6-4.3.7-8.3.8-8.4v-.2l10.7 1 11.6 1 25.3 13.6a9.6 9.6 0 0 1 4.2 12.3l-11.7 26.3a2.2 2.2 0 0 1-2 1.2Z" fill="#2F2E41"/><path d="m355.8 48.8-12.4-4.3s-7.8 6-4 21a37 37 0 0 1-2.9 25.7s13.8 16.7 26.7 4.3l-5-24.2s7.9-16-2.4-22.5Z" fill="#CBCBCB"/><path d="M386 108.1a5.2 5.2 0 0 0-3.7-7l-24-40.2-8.4 7.3 26.1 37.2a5.2 5.2 0 0 0 3.8 5.8 5.1 5.1 0 0 0 6.1-3Z" fill="#FFBE9D"/><path d="m363 67.5-10 5.7a2.3 2.3 0 0 1-3.3-1.2l-4.2-10.8a6.4 6.4 0 0 1 7.3-9.3c1.6.5 3 1.5 3.8 3l7.2 9.1a2.3 2.3 0 0 1-.7 3.5Z" fill="#CBCBCB"/><path d="M338.9 32.6s5.2-6.1 8.2-7c1.8-.5 3.5-1.2 5.1-2 0 0 6 5.4 10.6 5.8 4.6.5.4-10.2.4-10.2l-8.5-2-8 .8-6.4 4.2-1.4 10.4Z" fill="#2F2E41"/><path d="M30 108.4C30 76.3 56 0 88 0s58 76.3 58 108.4a58.3 58.3 0 0 1-58 58 58 58 0 0 1-58-58Z" fill="#E5E5E5"/><path d="M88 250a.5.5 0 0 1-.4-.5V49a.5.5 0 0 1 .4-.5.5.5 0 0 1 .5.5v200.6a.5.5 0 0 1-.5.5Z" fill="#CCC"/><path d="m88 87.6-.3-.1-23-23a.5.5 0 0 1 .7-.7l23 23a.5.5 0 0 1-.4.8ZM88 127.5a.5.5 0 0 1-.4-.3.5.5 0 0 1 .1-.5L126.2 88a.5.5 0 0 1 .3-.1.5.5 0 0 1 .5.2.5.5 0 0 1-.1.6l-38.5 38.5-.4.2Z" fill="#CCC"/><path d="M531.3 250H.7l-.5-.1-.2-.4c0-.1 0-.3.2-.4l.5-.1h530.6l.5.1.2.4c0 .1 0 .3-.2.4l-.5.1Z" fill="#E6E6E6"/><path d="M104.4 213.3c0-8.3 6.7-27.8 14.9-27.8S134 205 134 213.3a15 15 0 0 1-14.8 14.9 14.9 14.9 0 0 1-15-15Z" fill="#6A34BD"/><path d="M119.3 249.5a.1.1 0 0 1-.2-.1V198a.1.1 0 0 1 .1-.1.1.1 0 0 1 .1 0v51.6Z" fill="#CCC"/><path d="m119.3 208-.1-.1-6-6a.1.1 0 0 1 .3 0l5.9 5.8v.2h-.1ZM119.3 218.1h-.1v-.1l9.8-10a.1.1 0 1 1 .2.2l-9.8 9.9h-.1Z" fill="#E6E6E6"/><g clip-path="url(#a)"><path d="M459.3 234a27.3 27.3 0 0 1-9.8 15.4l-2.4.3c-.7 0-1.3 0-2 .2h-.1l-.1-.7-.3-3a16.2 16.2 0 0 1-1.5-14c1.2-3.1 3.3-5.8 5.3-8.6 2.9-3.7 5.6-7.4 5.7-12 1.4 1.8 2.6 3.8 3.5 5.8-.8.4-1.6 1-2.2 1.7-.2.2-.4.4-.3.7.1.2.4.2.6.2l1.7.2 1.3.1a27.5 27.5 0 0 1 .6 13.7Z" fill="#2F2E41"/><path d="M473 222.9a16 16 0 0 0-5.1 7.4c-1.2.4-2.3 1-3.1 2-.2.2-.4.4-.2.7 0 .2.3.2.5.2l1.6.2c-1.1 3.5-2.2 7-4.2 10a15.9 15.9 0 0 1-6.8 5.5 459.3 459.3 0 0 0-8.8.8l-2 .2v-.7a27.3 27.3 0 0 1 7.2-17.9A26.4 26.4 0 0 1 473 223Z" fill="#6A34BD"/><path d="m448 247.2-.5 1.5-.2.7-2 .2-2.2.3-.5-.7a27 27 0 0 1 3.4-37.6c-.6 3 .1 5.9 1.2 8.7a7 7 0 0 0-2.5 1.8c-.2.2-.4.4-.3.7.1.2.4.2.6.2l1.6.2 1.3.2h.6v.2c1.3 2.7 2.6 5.4 3.3 8.1l.5 2.1a16.4 16.4 0 0 1-4.3 13.4Z" fill="#6A34BD"/><path d="M453.2 237.4a1.6 1.6 0 0 1-1.6-1 1.6 1.6 0 0 1 .4-1.8l.1-.4v-.1c-1.5-3.6-10.9 6.3-11.3 9.7-.1 1.5 0 3 .3 4.4a52.4 52.4 0 0 1 6.5-53.7c3 .2 5.5-.3 5.7-6 0-1 .8-2 1-3l-.8.2h-.3a1.6 1.6 0 0 1-1.5-1 1.6 1.6 0 0 1 .2-1.6c0-.2.2-.3.3-.5l.6-.7.7-.8c-.4-.6-1-1.1-1.5-1.5-2.1-1.3-5-.4-6.5 1.5a8.5 8.5 0 0 0-1.3 7c.5 2.1 1.4 4 2.5 5.8l-.3.5c-2.1 2.7-4 5.6-5.4 8.7.4-3.5-4.9-15.8-6.9-18.4a4.4 4.4 0 0 0-7.9 2.2v.1l1 .6a2.2 2.2 0 0 1 .8 2.3c0 .4-.3.8-.6 1.1-.3.3-.7.5-1.2.6-4 5.9 8.9 21.1 12.1 17.7a54.5 54.5 0 0 0-2.8 21.8c-.7-6-13-14.9-16.7-14.1-2 .4-4 .3-3.8 2.4v.1a14.6 14.6 0 0 1 2.6 1.4c.3.2.6.6.8 1a2.2 2.2 0 0 1-.6 2.4c-.3.3-.7.5-1.1.6h-.1c-1.9 6.4 11.7 16.8 20 13.5.9 3.6 2 7.2 3.6 10.5h12.7l.1-.4c-1.2 0-2.4 0-3.5-.2l2.8-3.5v-.1l1.5-1.8c0-1.9-.2-3.7-.6-5.5Zm-14.5-29Zm-2.8 25.7-.2-.2v-.7l.2 1Z" fill="#2F2E41"/></g><g clip-path="url(#b)"><path d="M63.5 249H14.1s-1-14.3 4.9-14.4c6-.2 5.3 6.3 12.7-2.6 7.4-9 16.4-8.5 17.6-3.2 1.2 5.3-2.3 9.5 4 8.2 6.3-1.3 15.3 2.1 10.2 12Z" fill="#E5E5E5"/><path d="M62.5 238c-3.6-.3-7.3.6-10.4 2.6-3.1 2-5.6 5-7 8.5-.3.7.6 1.3.9.6a17 17 0 0 1 6.6-8.1c3-1.9 6.4-2.7 9.9-2.4.7.1.7-1 0-1.1ZM18.2 235a17.7 17.7 0 0 1 4.5 13.5c0 .7 1.1.7 1.2 0a18 18 0 0 0-5-14.3c-.4-.6-1.2.2-.7.8ZM46 225.3a74 74 0 0 0-9 23c-.1.7 1 1 1 .3a72.9 72.9 0 0 1 9-23.2.6.6 0 0 0-1-.1Z" fill="#fff"/></g><defs><clipPath id="a"><path fill="#fff" transform="translate(415 179)" d="M0 0h58v69H0z"/></clipPath><clipPath id="b"><path fill="#fff" transform="translate(14 225)" d="M0 0h51v23H0z"/></clipPath></defs></svg>