<svg width="20" height="20" fill="currentColor" xmlns="http://www.w3.org/2000/svg"><g><path d="M3.3 17.5V9.7l-1.5 1.1-1-1.3 9.2-7 9.2 7-1 1.3-1.5-1.1v7.8H3.3ZM5 15.8h10V8.4l-5-3.8-5 3.8v7.4Zm1.7-3.3c-.3 0-.5 0-.6-.2a.8.8 0 0 1-.3-.6c0-.3.1-.5.3-.6.1-.2.3-.3.6-.3l.6.3.2.6c0 .2 0 .4-.2.6l-.6.2Zm3.3 0c-.2 0-.4 0-.6-.2a.8.8 0 0 1-.2-.6c0-.3 0-.5.2-.6l.6-.3.6.3c.2.1.2.3.2.6 0 .2 0 .4-.2.6l-.6.2Zm3.3 0c-.2 0-.4 0-.6-.2a.8.8 0 0 1-.2-.6c0-.3 0-.5.2-.6l.6-.3c.3 0 .5.1.6.3.2.1.3.3.3.6l-.3.6-.6.2Z" fill="currentColor"/></g></svg>