<svg width="24" height="24" fill="currentColor" xmlns="http://www.w3.org/2000/svg"><g><path d="M12 12c-1.1 0-2-.4-2.8-1.2A3.9 3.9 0 0 1 8 8c0-1.1.4-2 1.2-2.8C10 4.4 10.9 4 12 4c1.1 0 2 .4 2.8 1.2C15.6 6 16 6.9 16 8c0 1.1-.4 2-1.2 2.8-.8.8-1.7 1.2-2.8 1.2Zm-8 8v-2.8c0-.6.1-1 .4-1.6a3 3 0 0 1 1.2-1A14.8 14.8 0 0 1 12 13a13.8 13.8 0 0 1 6.4 1.6c.5.2.9.6 1.2 1 .3.5.4 1 .4 1.6V20H4Zm2-2h12v-.8l-.1-.5a1 1 0 0 0-.4-.3A13 13 0 0 0 12 15a11.6 11.6 0 0 0-5.5 1.4 1 1 0 0 0-.5.8v.8Zm6-8c.6 0 1-.2 1.4-.6.4-.4.6-.8.6-1.4 0-.5-.2-1-.6-1.4A2 2 0 0 0 12 6a2 2 0 0 0-1.4.6A2 2 0 0 0 10 8c0 .6.2 1 .6 1.4.4.4.8.6 1.4.6Z" fill="currentColor"/></g></svg>